<svg data-v-fde0c5aa="" xmlns="http://www.w3.org/2000/svg" viewBox="0 0 300 300" class="iconAboveSlogan"><!----><defs data-v-fde0c5aa=""><!----></defs><!----><defs data-v-fde0c5aa=""><!----></defs><g data-v-fde0c5aa="" id="b76a7338-ff69-4992-bc37-80470d65dbef" fill="#FFFFFF" transform="matrix(2.490898705129887,0,0,2.490898705129887,20.000000296938264,149.18939250908656)"><path d="M2.37 3.82C3.25 3.61 3.81 3.56 5.19 3.54C4.84 5.39 3.82 10.08 3.08 12.12C2.66 13.27 2.31 13.59 1.83 13.59C1.26 13.59 0.95 13.10 0.95 12.26C0.95 11.63 1.12 10.88 1.46 10.02C1.32 9.95 1.19 9.91 1.06 9.91C0.41 9.91 0 11.17 0 12.26C0 13.83 0.85 14.08 1.51 14.08C2.34 14.08 3.07 13.69 3.81 12.03C4.91 9.56 5.80 4.82 5.80 4.20C5.80 3.99 5.70 3.70 5.50 3.54C5.80 3.54 6.12 3.53 6.50 3.53C6.79 3.53 7.36 3.47 7.57 3.12C7.06 3.02 5.75 2.83 4.65 2.83C3.14 2.83 2.46 3.19 2.37 3.82ZM9.52 9.91C8.83 10.92 7.45 12.96 6.58 12.96C6.33 12.96 6.20 12.80 6.20 12.42C6.20 11.06 7.77 8.46 9.09 8.46C9.59 8.46 9.77 8.82 9.77 9.24C9.77 9.39 9.74 9.58 9.70 9.73C10.11 9.73 10.39 9.59 10.39 9.13C10.39 8.50 9.84 8.08 9.11 8.08C7.29 8.08 5.24 10.71 5.24 12.38C5.24 13.16 5.68 13.54 6.27 13.54C6.96 13.54 7.57 12.99 8.39 11.91C8.36 12.07 8.34 12.21 8.34 12.32C8.34 12.81 8.67 13.30 9.35 13.30C10.35 13.30 11.54 12.26 12.12 10.75L11.98 10.61C11.14 12.10 10.25 12.82 9.74 12.82C9.41 12.82 9.27 12.49 9.27 12.21C9.27 11.54 10.08 10.58 10.08 10.26C10.08 10.05 9.69 9.94 9.52 9.91ZM11.86 11.34C12.15 10.84 12.67 9.76 13.10 8.65C13.45 8.90 13.89 9.11 13.89 9.72C13.89 10.46 13.12 11.51 13.12 12.33C13.12 12.88 13.51 13.24 14.14 13.24C15.33 13.24 16.53 11.98 17.07 10.79L16.88 10.65C16.53 11.47 15.39 12.74 14.50 12.74C14.28 12.74 14.08 12.66 14.08 12.32C14.08 11.73 14.78 10.81 14.78 9.95C14.78 8.76 13.36 8.53 13.36 8.01C13.36 7.95 13.51 7.59 13.51 7.49C13.51 7.39 13.51 7.15 13.31 7.15C13.16 7.15 12.73 7.55 12.73 8.11C12.73 8.25 12.78 8.36 12.87 8.44C12.46 9.63 11.98 10.61 11.73 11.10ZM20.73 8.47C20.75 8.40 20.76 8.34 20.76 8.27C20.76 7.98 20.54 7.84 20.15 7.84C18.41 7.84 16.38 10.57 16.38 12.12C16.38 12.95 16.95 13.30 17.43 13.30C18.28 13.30 19.38 12.19 20.29 10.70C20.12 11.34 20.02 11.87 20.02 12.19C20.02 12.68 20.24 13.24 20.94 13.24C21.90 13.24 23.11 12.18 23.66 10.74L23.49 10.61C22.90 11.89 21.91 12.68 21.34 12.68C21.01 12.68 21.01 12.43 21.01 11.90C21.01 9.13 24.23 4.00 24.23 3.12C24.23 2.94 24.11 2.80 23.95 2.80C23.18 2.80 21.92 6.08 20.89 8.78C19.99 11.12 18.62 12.63 17.86 12.63C17.56 12.63 17.36 12.38 17.36 11.96C17.36 10.88 18.69 8.26 20.20 8.26C20.45 8.26 20.64 8.33 20.73 8.47ZM25.19 8.13C24.23 8.13 23.17 11.00 23.17 12.07C23.17 12.73 23.52 13.24 24.25 13.24C25.34 13.24 26.46 12.36 27.01 10.75L26.88 10.61C26.08 12.21 25.35 12.75 24.72 12.75C24.26 12.75 24.04 12.59 24.04 11.91C24.04 10.60 25.49 8.90 25.49 8.44C25.49 8.25 25.35 8.13 25.19 8.13ZM27.30 5.52C27.27 5.18 27.15 5.08 26.99 5.08C26.43 5.08 25.54 6.45 25.54 6.78C25.54 6.86 25.59 7.07 25.73 7.14C26.14 6.59 26.63 6.10 27.30 5.52ZM26.10 12.78C26.25 12.99 26.54 13.09 26.84 13.09C27.57 11.86 28.85 9.63 30.02 9.63C30.34 9.63 30.58 9.80 30.58 10.32C30.58 10.98 30.17 11.69 30.17 12.26C30.17 12.78 30.49 13.16 31.15 13.16C32.20 13.16 32.98 12.17 33.57 10.79L33.42 10.61C32.90 11.65 32.16 12.80 31.46 12.80C31.22 12.80 31.04 12.66 31.04 12.26C31.04 11.58 31.61 10.92 31.61 10.05C31.61 9.42 31.30 8.79 30.58 8.79C29.51 8.79 28.41 10.12 27.66 11.26C27.92 10.49 28.11 9.70 28.11 9.41C28.11 9.18 27.99 9.04 27.73 9.04C27.47 9.04 27.20 9.21 27.09 9.34C27.08 10.56 26.10 12.61 26.10 12.78ZM41.20 8.47C41.22 8.40 41.23 8.34 41.23 8.27C41.23 7.98 41.01 7.84 40.61 7.84C38.88 7.84 36.85 10.57 36.85 12.12C36.85 12.95 37.42 13.30 37.90 13.30C38.75 13.30 39.84 12.19 40.75 10.70C40.59 11.34 40.49 11.87 40.49 12.19C40.49 12.68 40.71 13.24 41.41 13.24C42.36 13.24 43.58 12.18 44.13 10.74L43.96 10.61C43.37 11.89 42.38 12.68 41.80 12.68C41.48 12.68 41.48 12.43 41.48 11.90C41.48 9.13 44.70 4.00 44.70 3.12C44.70 2.94 44.58 2.80 44.42 2.80C43.65 2.80 42.39 6.08 41.36 8.78C40.46 11.12 39.09 12.63 38.33 12.63C38.02 12.63 37.83 12.38 37.83 11.96C37.83 10.88 39.16 8.26 40.67 8.26C40.92 8.26 41.10 8.33 41.20 8.47ZM47.94 8.69C47.94 8.01 47.50 7.84 47.07 7.84C45.42 7.84 43.51 10.21 43.51 11.87C43.51 12.78 44.09 13.50 45.22 13.50C46.61 13.50 48.06 12.42 48.82 10.74L48.65 10.61C47.95 11.96 46.70 13.09 45.51 13.09C44.65 13.09 44.41 12.49 44.41 11.91C44.41 11.77 44.42 11.59 44.46 11.41C46.06 11.26 47.94 10.12 47.94 8.69ZM47.03 8.27C47.26 8.27 47.32 8.39 47.32 8.60C47.32 9.80 45.53 10.79 44.53 11.14C44.91 9.81 46.13 8.27 47.03 8.27ZM53.24 3.84C53.24 3.44 53.07 2.80 52.78 2.80C51.83 2.80 48.43 9.17 48.43 11.86C48.43 12.68 48.75 13.30 49.55 13.30C50.55 13.30 51.44 12.32 52.18 10.72L51.97 10.61C51.48 11.70 50.69 12.85 49.95 12.85C49.55 12.85 49.34 12.50 49.34 11.77C49.34 11.35 49.41 10.86 49.52 10.36C51.56 8.67 53.24 5.08 53.24 3.84ZM52.71 3.93C52.75 3.93 52.81 3.98 52.81 4.16C52.81 5.10 51.27 8.25 49.64 9.88C50.41 7.18 52.33 3.93 52.71 3.93ZM63.29 6.48C63.29 9.95 60.56 13.73 57.60 13.73C57.41 13.73 57.25 13.72 56.99 13.68C57.58 10.98 58.86 6.85 60.02 4.17C59.88 4.07 59.75 4.03 59.63 4.03C59.07 4.03 58.65 5.05 58.53 5.35C58.13 6.43 56.67 10.81 56.11 13.47C56.48 13.99 57.02 14.10 57.61 14.10C60.89 14.10 64.33 10.68 64.33 6.64C64.33 4.48 63.35 2.80 60.84 2.80C58.44 2.80 56.45 4.34 56.45 5.64C56.45 6.08 56.67 6.43 57.29 6.43C57.25 6.30 57.22 6.13 57.22 5.91C57.22 4.37 58.59 3.18 60.42 3.18C62.12 3.18 63.29 4.21 63.29 6.48ZM68.57 8.69C68.57 8.01 68.14 7.84 67.70 7.84C66.05 7.84 64.15 10.21 64.15 11.87C64.15 12.78 64.72 13.50 65.86 13.50C67.24 13.50 68.70 12.42 69.45 10.74L69.29 10.61C68.59 11.96 67.34 13.09 66.15 13.09C65.28 13.09 65.04 12.49 65.04 11.91C65.04 11.77 65.06 11.59 65.10 11.41C66.70 11.26 68.57 10.12 68.57 8.69ZM67.66 8.27C67.90 8.27 67.96 8.39 67.96 8.60C67.96 9.80 66.16 10.79 65.17 11.14C65.55 9.81 66.77 8.27 67.66 8.27ZM68.74 11.76C68.74 12.60 69.17 13.59 70.49 13.59C71.29 13.59 71.99 13.23 72.28 12.43C73.12 12.31 73.89 11.79 74.24 10.77L74.12 10.63C73.57 11.68 73.00 12.10 72.35 12.21C72.41 12.00 72.44 11.77 72.44 11.52C72.44 10.23 71.71 9.07 71.71 8.15C71.71 7.83 71.79 7.63 71.79 7.53C71.79 7.43 71.72 7.35 71.57 7.35C71.30 7.35 71.02 7.62 71.02 8.30L71.02 8.47C70.67 9.21 70.20 9.88 69.64 10.50C69.48 10.67 68.74 10.65 68.74 11.76ZM71.53 11.54C71.53 11.82 71.50 12.01 71.47 12.19C70.62 12.01 70.01 11.42 69.73 10.82C70.15 10.40 70.66 9.72 71.09 9.00C71.23 9.77 71.53 10.65 71.53 11.54ZM70.52 13.10C69.79 13.10 69.37 12.42 69.37 11.75C69.37 11.45 69.45 11.27 69.68 11.26C69.97 11.73 70.62 12.26 71.40 12.42C71.19 13.03 70.74 13.10 70.52 13.10ZM75.59 13.24C77.52 13.24 78.89 11.19 78.89 9.73C78.89 8.78 78.30 8.13 77.48 8.13C76.38 8.13 75.53 9.27 75.05 10.19C75.25 9.28 75.38 8.57 75.38 8.30C75.38 7.98 75.18 7.66 74.70 7.66C74.48 7.66 74.45 7.73 74.44 7.90C73.77 13.51 73.19 13.96 72.53 16.27C72.52 16.32 72.73 16.80 72.97 16.80C73.02 16.80 73.09 16.77 73.14 16.73C73.46 16.42 74.20 13.83 74.86 11.03C75.21 10.22 76.20 8.78 77.18 8.78C77.74 8.78 77.98 9.27 77.98 9.86C77.98 11.28 76.62 12.92 75.12 12.92C74.93 12.92 74.77 12.92 74.77 12.99C74.77 13.10 75.10 13.24 75.59 13.24ZM83.58 8.69C83.58 8.01 83.15 7.84 82.71 7.84C81.06 7.84 79.16 10.21 79.16 11.87C79.16 12.78 79.73 13.50 80.86 13.50C82.25 13.50 83.71 12.42 84.46 10.74L84.29 10.61C83.59 11.96 82.35 13.09 81.16 13.09C80.29 13.09 80.05 12.49 80.05 11.91C80.05 11.77 80.07 11.59 80.11 11.41C81.70 11.26 83.58 10.12 83.58 8.69ZM82.67 8.27C82.91 8.27 82.96 8.39 82.96 8.60C82.96 9.80 81.17 10.79 80.18 11.14C80.56 9.81 81.77 8.27 82.67 8.27ZM84.17 11.34C84.46 10.84 84.98 9.76 85.41 8.65C85.76 8.90 86.20 9.11 86.20 9.72C86.20 10.46 85.43 11.51 85.43 12.33C85.43 12.88 85.82 13.24 86.45 13.24C87.64 13.24 88.84 11.98 89.38 10.79L89.19 10.65C88.84 11.47 87.70 12.74 86.81 12.74C86.59 12.74 86.39 12.66 86.39 12.32C86.39 11.73 87.09 10.81 87.09 9.95C87.09 8.76 85.67 8.53 85.67 8.01C85.67 7.95 85.82 7.59 85.82 7.49C85.82 7.39 85.82 7.15 85.62 7.15C85.47 7.15 85.04 7.55 85.04 8.11C85.04 8.25 85.09 8.36 85.18 8.44C84.77 9.63 84.29 10.61 84.04 11.10ZM93.17 8.41C92.47 8.48 91.78 8.50 91.17 8.50L90.65 8.50C91.46 6.78 92.51 5.32 92.51 4.83C92.51 4.63 92.36 4.52 92.22 4.52C91.64 4.52 90.57 6.44 89.78 8.46C89.52 8.44 89.31 8.41 89.17 8.40L89.17 8.65C89.32 8.71 89.49 8.74 89.67 8.76C89.19 10.04 88.86 11.31 88.86 12.14C88.86 13.06 89.29 13.52 90.10 13.52C91.42 13.52 92.68 12.33 93.35 10.75L93.17 10.61C92.46 12.08 91.48 13.01 90.51 13.01C89.95 13.01 89.73 12.70 89.73 11.89C89.73 10.89 90.06 9.83 90.50 8.83L90.71 8.83C91.34 8.83 92.15 8.78 93.17 8.67ZM96.84 9.91C96.15 10.92 94.77 12.96 93.90 12.96C93.65 12.96 93.52 12.80 93.52 12.42C93.52 11.06 95.09 8.46 96.40 8.46C96.91 8.46 97.09 8.82 97.09 9.24C97.09 9.39 97.06 9.58 97.02 9.73C97.43 9.73 97.71 9.59 97.71 9.13C97.71 8.50 97.16 8.08 96.43 8.08C94.61 8.08 92.55 10.71 92.55 12.38C92.55 13.16 93.00 13.54 93.59 13.54C94.28 13.54 94.89 12.99 95.70 11.91C95.68 12.07 95.66 12.21 95.66 12.32C95.66 12.81 95.98 13.30 96.67 13.30C97.66 13.30 98.85 12.26 99.44 10.75L99.30 10.61C98.46 12.10 97.57 12.82 97.06 12.82C96.73 12.82 96.59 12.49 96.59 12.21C96.59 11.54 97.40 10.58 97.40 10.26C97.40 10.05 97.01 9.94 96.84 9.91ZM99.18 11.34C99.47 10.84 99.99 9.76 100.42 8.65C100.77 8.90 101.21 9.11 101.21 9.72C101.21 10.46 100.44 11.51 100.44 12.33C100.44 12.88 100.83 13.24 101.46 13.24C102.65 13.24 103.85 11.98 104.38 10.79L104.20 10.65C103.85 11.47 102.70 12.74 101.82 12.74C101.60 12.74 101.40 12.66 101.40 12.32C101.40 11.73 102.10 10.81 102.10 9.95C102.10 8.76 100.67 8.53 100.67 8.01C100.67 7.95 100.83 7.59 100.83 7.49C100.83 7.39 100.83 7.15 100.63 7.15C100.48 7.15 100.04 7.55 100.04 8.11C100.04 8.25 100.10 8.36 100.18 8.44C99.78 9.63 99.30 10.61 99.05 11.10Z"></path></g><defs data-v-fde0c5aa=""><!----></defs><g data-v-fde0c5aa="" id="f6c68bb1-36ce-4895-9e58-3241467cec1e" stroke="none" fill="#CC9724" transform="matrix(0.8442022837024261,0,0,0.8442022837024261,107.83757717027848,74.47194059672535)"><path d="M84.494 32.769c-6.481-1.252-13.045-.589-18.771 2.029a30.68 30.68 0 011.063 7.998c0 9.552-4.4 18.414-12.171 24.791 8.304.499 16.402-2.143 22.343-8.083 6.984-6.985 9.427-16.958 7.536-26.735z"></path><path d="M86.757 49.471c-1.496 4.631-4.017 8.841-7.516 12.338-5.86 5.86-13.905 9.107-22.653 9.107h-.001c-.388 0-.78-.013-1.172-.03 6.388 3.98 13.913 5.579 21.388 3.896 9.637-2.168 17.033-9.289 20.663-18.562-3.168-2.981-6.81-5.282-10.709-6.749zM43.299 70.916c-8.748 0-16.793-3.247-22.654-9.108-3.498-3.498-6.021-7.706-7.517-12.336-3.899 1.467-7.54 3.768-10.707 6.749 3.63 9.272 11.026 16.394 20.663 18.562 7.475 1.683 15 .084 21.386-3.896-.392.017-.783.029-1.171.029z"></path><path d="M33.174 42.795c0-2.727.362-5.396 1.054-7.969-5.742-2.642-12.33-3.315-18.837-2.058-1.89 9.777.553 19.75 7.538 26.734 5.957 5.957 14.084 8.599 22.411 8.079-7.767-6.375-12.166-15.235-12.166-24.786z"></path><path d="M36.406 42.795c0 9.878 5.324 18.657 13.574 24.235 8.25-5.578 13.574-14.356 13.574-24.235S58.23 24.138 49.98 18.561c-8.25 5.578-13.574 14.355-13.574 24.234z"></path></g><defs data-v-fde0c5aa=""><!----></defs><g data-v-fde0c5aa="" id="1c3bf858-3d77-4d2f-b1f2-f09e7659b1c4" fill="#FFFFFF" transform="matrix(0.8822331858885436,0,0,0.8822331858885436,52.16475136727659,198.61916932323902)"><path d="M0.76 3.64L0.38 3.64L0.38 3.08L3.74 3.08L3.75 3.64L3.22 3.64Q2.79 3.64 2.63 3.73L2.63 3.73Q2.46 3.83 2.46 4.16L2.46 4.16L2.46 9.33Q2.46 9.63 2.50 9.78L2.50 9.78Q2.54 10.01 2.70 10.41L2.70 10.41Q2.87 10.80 3.17 11.09L3.17 11.09Q3.47 11.40 4.03 11.63L4.03 11.63Q4.61 11.85 5.39 11.85L5.39 11.85Q6.24 11.85 6.79 11.67L6.79 11.67Q7.35 11.48 7.66 11.22Q7.96 10.96 8.11 10.49L8.11 10.49Q8.28 9.95 8.29 9.66L8.29 9.66Q8.31 9.18 8.32 8.67L8.32 8.67L8.32 4.14Q8.32 3.81 8.18 3.72L8.18 3.72Q8.03 3.64 7.55 3.64L7.55 3.64L7.05 3.64L7.08 3.08L9.71 3.08L9.71 3.64L9.52 3.64Q9.20 3.64 9.09 3.75Q8.98 3.86 8.98 4.25L8.98 4.25L8.98 9.22Q8.98 12.67 5.39 12.67L5.39 12.67Q3.22 12.67 2.27 11.76L2.27 11.76Q1.33 10.86 1.33 9.41L1.33 9.41L1.33 4.14Q1.33 3.81 1.23 3.72L1.23 3.72Q1.12 3.64 0.76 3.64L0.76 3.64ZM17.47 3.64L17.45 3.08L19.63 3.08L25.36 10.48L25.36 4.14Q25.36 3.81 25.21 3.72Q25.05 3.64 24.60 3.64L24.60 3.64L24.10 3.64L24.13 3.08L27.11 3.08L27.11 3.64L26.79 3.64Q26.33 3.64 26.17 3.75Q26.02 3.86 26.02 4.25L26.02 4.25L26.02 12.32L26.02 12.47Q26.02 12.52 26.01 12.57Q26.00 12.61 25.96 12.64L25.96 12.64Q25.95 12.65 25.89 12.65L25.89 12.65L25.70 12.65L25.64 12.65L25.61 12.65L25.59 12.64Q25.56 12.64 25.55 12.63Q25.53 12.61 25.53 12.60Q25.53 12.58 25.52 12.57L25.52 12.57Q25.49 12.54 25.46 12.50L25.46 12.50Q25.45 12.48 25.43 12.45Q25.41 12.41 25.40 12.40L25.40 12.40L19.29 4.56L19.36 11.22Q19.36 11.67 19.52 11.77L19.52 11.77Q19.68 11.87 20.39 11.87L20.39 11.87L20.63 11.87L20.63 12.41L17.69 12.41L17.69 11.87L18.12 11.87Q18.49 11.87 18.60 11.76L18.60 11.76Q18.70 11.66 18.70 11.25L18.70 11.25L18.70 3.80L18.56 3.64L17.47 3.64ZM44.91 3.64L44.42 3.64L44.43 3.08L48.02 3.08L48.02 3.64L47.39 3.64Q47.01 3.64 46.90 3.72Q46.79 3.80 46.79 4.16L46.79 4.16L46.79 11.22Q46.79 11.57 46.87 11.67Q46.96 11.77 47.25 11.77L47.25 11.77Q50.12 11.74 50.78 11.63L50.78 11.63Q50.99 11.61 51.07 11.39Q51.15 11.17 51.35 10.05L51.35 10.05L51.84 10.08L51.38 12.41L44.62 12.41L44.60 11.87L44.99 11.87Q45.50 11.87 45.57 11.80L45.57 11.80Q45.65 11.72 45.66 11.33L45.66 11.33L45.66 4.09Q45.66 3.80 45.50 3.72L45.50 3.72Q45.35 3.64 44.91 3.64L44.91 3.64ZM59.96 3.64L59.58 3.64L59.58 3.08L62.94 3.08L62.95 3.64L62.42 3.64Q61.99 3.64 61.83 3.73L61.83 3.73Q61.66 3.83 61.66 4.16L61.66 4.16L61.66 9.33Q61.66 9.63 61.69 9.78L61.69 9.78Q61.74 10.01 61.90 10.41L61.90 10.41Q62.07 10.80 62.36 11.09L62.36 11.09Q62.67 11.40 63.23 11.63L63.23 11.63Q63.81 11.85 64.59 11.85L64.59 11.85Q65.44 11.85 65.99 11.67L65.99 11.67Q66.55 11.48 66.86 11.22Q67.16 10.96 67.31 10.49L67.31 10.49Q67.48 9.95 67.48 9.66L67.48 9.66Q67.51 9.18 67.52 8.67L67.52 8.67L67.52 4.14Q67.52 3.81 67.38 3.72L67.38 3.72Q67.22 3.64 66.75 3.64L66.75 3.64L66.25 3.64L66.28 3.08L68.91 3.08L68.91 3.64L68.72 3.64Q68.40 3.64 68.29 3.75Q68.17 3.86 68.17 4.25L68.17 4.25L68.17 9.22Q68.17 12.67 64.59 12.67L64.59 12.67Q62.42 12.67 61.47 11.76L61.47 11.76Q60.53 10.86 60.53 9.41L60.53 9.41L60.53 4.14Q60.53 3.81 60.43 3.72L60.43 3.72Q60.32 3.64 59.96 3.64L59.96 3.64ZM77.03 8.24L77.03 8.24Q77.03 6.92 77.65 5.72Q78.26 4.52 79.50 3.72L79.50 3.72Q80.73 2.92 82.35 2.92L82.35 2.92Q83.62 2.92 85.21 3.57L85.21 3.57L85.21 2.86L85.77 2.86L85.87 5.92L85.32 5.93L85.22 4.48Q85.14 4.41 84.87 4.24L84.87 4.24Q84.62 4.07 83.86 3.83L83.86 3.83Q83.14 3.60 82.24 3.60L82.24 3.60Q81.26 3.60 80.49 3.93Q79.72 4.27 79.26 4.83L79.26 4.83Q78.79 5.39 78.54 6.08L78.54 6.08Q78.29 6.78 78.29 7.57L78.29 7.57Q78.29 9.33 79.41 10.69Q80.53 12.05 82.39 12.05L82.39 12.05Q83.09 12.05 83.72 11.85Q84.36 11.66 84.57 11.48L84.57 11.48L84.81 11.28L84.81 8.78L83.15 8.78L83.14 8.23L87.00 8.23L87.01 8.78L85.95 8.78L85.95 11.64L85.16 11.98Q84.46 12.30 84.24 12.39L84.24 12.39Q83.99 12.48 83.34 12.61L83.34 12.61Q82.74 12.74 82.13 12.74L82.13 12.74Q80.83 12.74 79.86 12.37L79.86 12.37Q78.87 12.00 78.25 11.36L78.25 11.36Q77.66 10.76 77.34 9.94L77.34 9.94Q77.03 9.15 77.03 8.24ZM94.77 12.41L94.75 11.87L94.92 11.87Q95.31 11.87 95.44 11.73L95.44 11.73Q95.57 11.57 95.90 10.83L95.90 10.83L96.81 8.82L97.38 7.53Q97.65 6.97 97.69 6.86L97.69 6.86Q97.76 6.70 97.81 6.60Q97.86 6.51 97.88 6.45L97.88 6.45L97.97 6.21L99.40 2.74L99.70 2.74Q100.55 4.98 102.74 10.25L102.74 10.25Q103.19 11.34 103.38 11.64L103.38 11.64Q103.52 11.87 103.95 11.87L103.95 11.87L104.17 11.87L104.15 12.41L100.96 12.41L100.97 11.87L101.39 11.87Q102.01 11.87 102.01 11.70L102.01 11.70Q102.01 11.63 101.87 11.27L101.87 11.27L100.83 8.72L97.58 8.72L96.48 11.18Q96.34 11.50 96.34 11.63L96.34 11.63Q96.34 11.79 96.43 11.83Q96.53 11.87 96.91 11.87L96.91 11.87L97.49 11.87L97.49 12.41L94.77 12.41ZM99.26 4.79L97.85 8.10L100.59 8.10L99.26 4.79ZM112.23 3.64L111.84 3.64L111.86 3.08L115.08 3.08Q116.21 3.08 116.81 3.21L116.81 3.21Q117.46 3.37 117.92 3.75L117.92 3.75Q118.92 4.57 118.92 5.71L118.92 5.71Q118.92 6.43 118.45 7.04L118.45 7.04Q117.96 7.66 116.93 7.92L116.93 7.92L119.62 11.49Q119.92 11.87 120.22 11.87L120.22 11.87L120.82 11.87L120.85 12.41L118.82 12.41L115.82 8.10L115.65 8.10Q115.61 8.10 115.55 8.11Q115.50 8.11 115.49 8.11L115.49 8.11Q114.60 8.11 114.21 8.03L114.21 8.03L114.21 11.46Q114.21 11.76 114.35 11.81L114.35 11.81Q114.47 11.87 115.18 11.87L115.18 11.87L115.89 11.87L115.86 12.41L112.14 12.41L112.14 11.87L112.46 11.87Q112.92 11.87 112.99 11.81L112.99 11.81Q113.07 11.74 113.07 11.46L113.07 11.46L113.07 4.14Q113.07 3.82 112.88 3.73L112.88 3.73Q112.66 3.64 112.23 3.64L112.23 3.64ZM114.21 4.28L114.21 7.57Q114.39 7.70 115.10 7.71L115.10 7.71Q116.38 7.71 116.96 7.27L116.96 7.27Q117.54 6.84 117.54 5.92L117.54 5.92Q117.54 4.92 116.77 4.27L116.77 4.27Q116.01 3.64 114.63 3.64L114.63 3.64Q114.38 3.64 114.30 3.75L114.30 3.75Q114.21 3.84 114.21 4.28L114.21 4.28ZM138.21 3.64L138.17 3.08L141.95 3.08Q143.27 3.08 144.14 3.19L144.14 3.19Q144.96 3.29 145.65 3.69L145.65 3.69Q146.60 4.27 147.10 5.24L147.10 5.24Q147.59 6.21 147.59 7.39L147.59 7.39Q147.59 8.05 147.45 8.65L147.45 8.65Q147.29 9.29 146.90 9.98L146.90 9.98Q146.47 10.73 145.91 11.21L145.91 11.21Q145.28 11.76 144.31 12.08L144.31 12.08Q143.31 12.41 142.04 12.41L142.04 12.41L138.42 12.41L138.41 11.87L138.78 11.87Q139.30 11.87 139.41 11.79L139.41 11.79Q139.51 11.70 139.51 11.25L139.51 11.25L139.51 4.14Q139.51 3.77 139.42 3.71L139.42 3.71Q139.31 3.64 138.80 3.64L138.80 3.64L138.21 3.64ZM140.65 4.39L140.65 11.22Q140.65 11.67 140.81 11.77L140.81 11.77Q140.97 11.87 141.84 11.87L141.84 11.87Q142.89 11.87 143.68 11.61L143.68 11.61Q144.54 11.35 144.98 10.99L144.98 10.99Q145.47 10.58 145.77 10.05Q146.08 9.52 146.21 8.96L146.21 8.96Q146.33 8.41 146.33 7.82L146.33 7.82Q146.33 7.03 146.06 6.34L146.06 6.34Q145.80 5.65 145.27 5.05L145.27 5.05Q144.74 4.46 143.83 4.09L143.83 4.09Q142.91 3.73 141.74 3.73L141.74 3.73L141.22 3.73Q140.86 3.73 140.76 3.85L140.76 3.85Q140.65 3.99 140.65 4.39L140.65 4.39ZM155.58 3.64L155.57 3.08L162.78 3.08Q162.79 4.14 162.85 5.28L162.85 5.28L162.30 5.30Q162.29 4.66 162.23 4.25L162.23 4.25Q162.19 3.89 162.13 3.80L162.13 3.80Q162.08 3.71 161.96 3.69L161.96 3.69Q161.87 3.68 161.28 3.68L161.28 3.68L158.90 3.68Q158.35 3.68 158.21 3.77L158.21 3.77Q158.09 3.86 158.09 4.33L158.09 4.33L158.09 6.28Q158.09 6.69 158.14 6.76L158.14 6.76Q158.21 6.84 158.55 6.84L158.55 6.84L160.67 6.84Q161.03 6.84 161.11 6.73L161.11 6.73Q161.19 6.63 161.20 6.14L161.20 6.14L161.20 5.61L161.71 5.63L161.71 8.97L161.20 8.97L161.20 8.24Q161.20 7.66 161.12 7.57L161.12 7.57Q161.04 7.46 160.69 7.46L160.69 7.46L158.59 7.46Q158.26 7.46 158.17 7.54Q158.09 7.63 158.09 7.89L158.09 7.89L158.09 11.20Q158.09 11.57 158.17 11.67Q158.26 11.77 158.53 11.77L158.53 11.77Q161.45 11.75 161.98 11.69L161.98 11.69Q162.50 11.63 162.58 11.38L162.58 11.38L162.59 11.36L162.59 11.35L162.82 10.17L163.30 10.25L162.95 12.41L155.85 12.41L155.85 11.87L156.21 11.87Q156.78 11.87 156.86 11.80L156.86 11.80Q156.95 11.72 156.95 11.33L156.95 11.33L156.95 4.24Q156.95 3.82 156.80 3.73L156.80 3.73Q156.63 3.64 155.98 3.64L155.98 3.64L155.58 3.64ZM184.47 12.41L180.74 12.41L180.74 11.87L181.18 11.87Q181.56 11.87 181.61 11.81L181.61 11.81Q181.68 11.74 181.69 11.46L181.69 11.46L181.69 4.14Q181.69 3.81 181.60 3.72Q181.51 3.64 181.15 3.64L181.15 3.64L180.78 3.64L180.80 3.08L183.68 3.08Q184.83 3.08 185.48 3.19L185.48 3.19Q186.08 3.28 186.55 3.68L186.55 3.68Q187.74 4.64 187.74 6.19L187.74 6.19Q187.74 7.23 186.98 7.98L186.98 7.98Q186.20 8.74 184.79 8.73L184.79 8.73Q184.62 8.73 184.20 8.70L184.20 8.70Q184.09 8.69 183.67 8.62L183.67 8.62Q183.33 8.55 183.24 8.54L183.24 8.54Q182.94 8.47 182.93 8.46L182.93 8.46L182.81 8.44L182.81 11.46Q182.81 11.74 182.94 11.81L182.94 11.81Q183.05 11.87 183.77 11.87L183.77 11.87L184.47 11.87L184.47 12.41ZM182.81 4.28L182.81 8.02Q183.16 8.29 184.13 8.29L184.13 8.29Q185.27 8.29 185.84 7.75L185.84 7.75Q186.43 7.21 186.43 6.16L186.43 6.16Q186.43 4.98 185.52 4.31L185.52 4.31Q184.63 3.64 183.24 3.64L183.24 3.64Q182.98 3.64 182.90 3.75L182.90 3.75Q182.82 3.84 182.81 4.28L182.81 4.28ZM195.73 12.41L195.72 11.87L195.89 11.87Q196.28 11.87 196.41 11.73L196.41 11.73Q196.53 11.57 196.87 10.83L196.87 10.83L197.78 8.82L198.35 7.53Q198.62 6.97 198.66 6.86L198.66 6.86Q198.73 6.70 198.78 6.60Q198.83 6.51 198.84 6.45L198.84 6.45L198.94 6.21L200.37 2.74L200.66 2.74Q201.52 4.98 203.70 10.25L203.70 10.25Q204.16 11.34 204.35 11.64L204.35 11.64Q204.48 11.87 204.92 11.87L204.92 11.87L205.13 11.87L205.12 12.41L201.93 12.41L201.94 11.87L202.36 11.87Q202.97 11.87 202.97 11.70L202.97 11.70Q202.97 11.63 202.84 11.27L202.84 11.27L201.80 8.72L198.55 8.72L197.44 11.18Q197.31 11.50 197.31 11.63L197.31 11.63Q197.31 11.79 197.40 11.83Q197.50 11.87 197.88 11.87L197.88 11.87L198.45 11.87L198.45 12.41L195.73 12.41ZM200.23 4.79L198.82 8.10L201.56 8.10L200.23 4.79ZM212.86 12.13L212.86 12.13Q212.86 12.08 212.95 11.95L212.95 11.95Q213.01 11.87 213.25 11.60L213.25 11.60Q213.36 11.48 213.42 11.41Q213.49 11.33 213.53 11.29L213.53 11.29L219.81 4.18L214.10 4.18Q213.83 4.18 213.76 4.31L213.76 4.31Q213.71 4.43 213.64 5.09L213.64 5.09Q213.64 5.11 213.63 5.13Q213.62 5.16 213.62 5.21Q213.61 5.26 213.61 5.30L213.61 5.30Q213.58 5.53 213.58 5.58L213.58 5.58L213.02 5.55Q213.21 4.02 213.23 3.08L213.23 3.08L220.86 3.08Q221.29 3.08 221.29 3.21L221.29 3.21Q221.29 3.24 221.24 3.36L221.24 3.36Q221.21 3.41 221.13 3.55L221.13 3.55Q221.10 3.60 220.99 3.75L220.99 3.75Q220.93 3.83 220.88 3.90L220.88 3.90L220.81 3.97L214.44 11.25L219.98 11.25Q220.55 11.25 220.61 11.17L220.61 11.17Q220.72 11.03 220.88 9.95L220.88 9.95L221.41 9.97Q221.41 10.01 221.39 10.11Q221.38 10.21 221.35 10.40Q221.33 10.60 221.31 10.79L221.31 10.79Q221.17 11.87 221.13 12.41L221.13 12.41L213.17 12.41Q212.86 12.41 212.86 12.13Z"></path></g></svg>